<?xml version="1.0" encoding="UTF-8"?>
<svg id="Capa_1" data-name="Capa 1" xmlns="http://www.w3.org/2000/svg" viewBox="0 0 100 100" preserveAspectRatio="xMidYMid meet">
  <defs>
    <style>
      .cls-1 {
        fill: #feb46b;
      }
    </style>
  </defs>
<g transform="translate(50 50) scale(0.6) translate(-50 -50)">

 <g transform="translate(50 50) scale(0.6) translate(-50 -50)">
  <path class="cls-1" d="M78.02,44.15h-4.06s-1.82-4.4-1.82-4.4l2.77-2.77c.52-.52.59-1.61.04-2.15l-8.32-8.32c-.56-.55-1.62-.47-2.15.05l-2.83,2.77-4.29-1.81v-4.09c0-.62-.77-1.36-1.42-1.35l-13.06.09-.28,5.38-4.26,1.79-3.01-2.97c-.36-.35-1.54-.26-1.94.14l-8.33,8.33c-.55.55-.48,1.62.04,2.15l2.77,2.77-1.82,4.41h-4.06c-.64-.01-1.4.68-1.4,1.37v11.84c0,.65.79,1.46,1.38,1.46h4.1s1.8,4.32,1.8,4.32l-2.77,2.77c-.52.52-.59,1.61-.04,2.15l8.52,8.51c.33.33,1.46.27,1.78-.04l2.95-2.94,4.35,1.82v4.06c0,.61.78,1.41,1.42,1.41h11.86c.69,0,1.44-.8,1.44-1.54v-3.93s4.34-1.82,4.34-1.82l2.94,2.94c.32.32,1.45.38,1.78.05l8.52-8.51c.56-.55.47-1.61-.06-2.15l-2.76-2.82,1.81-4.29,4.09.02c.59,0,1.38-.81,1.38-1.46v-11.84c0-.69-.76-1.38-1.4-1.38ZM71.7,56.08c-.97,2.94-1.72,4.77-3.11,7.48l3.22,3.5-6.22,6.22-3.5-3.21c-2.67,1.37-4.53,2.14-7.44,3.08l-.26,4.82h-8.77s-.16-4.71-.16-4.71c-2.83-1.01-4.84-1.81-7.56-3.18l-3.51,3.21-6.21-6.27,3.21-3.35c-1.27-2.66-2.1-4.62-3.1-7.55-1.36-.14-2.92-.19-4.75-.2l-.03-8.83c1.64-.02,3.36-.08,4.78-.27.99-2.89,1.76-4.73,3.1-7.55l-3.2-3.4,6.2-6.2,3.41,3.2c2.82-1.32,4.69-2.09,7.53-3.09.22-1.35.26-2.93.23-4.74l8.86-.04-.04,3.44c0,.55.6,1.5,1.06,1.65,2.46.81,4.21,1.59,6.75,2.79l3.42-3.21,6.2,6.2-3.2,3.42c1.08,2.26,2.1,4.61,2.86,6.85.12.36.92.94,1.3.94h3.7s0,8.81,0,8.81l-4.78.21Z"/>
  <path class="cls-1" d="M11.77,19.1c3.25,0,5.88-2.63,5.88-5.88s-2.63-5.88-5.88-5.88-5.88,2.63-5.88,5.88,2.63,5.88,5.88,5.88ZM11.77,10.3c1.62,0,2.93,1.31,2.93,2.93s-1.31,2.93-2.93,2.93-2.93-1.31-2.93-2.93,1.31-2.93,2.93-2.93Z"/>
  <path class="cls-1" d="M88.25,19.1c3.25,0,5.88-2.63,5.88-5.88s-2.63-5.88-5.88-5.88-5.88,2.63-5.88,5.88,2.63,5.88,5.88,5.88ZM88.25,10.3c1.62,0,2.93,1.31,2.93,2.93s-1.31,2.93-2.93,2.93-2.93-1.31-2.93-2.93,1.31-2.93,2.93-2.93Z"/>
  <path class="cls-1" d="M11.77,83.82c-3.25,0-5.88,2.63-5.88,5.88s2.63,5.88,5.88,5.88,5.88-2.63,5.88-5.88-2.63-5.88-5.88-5.88ZM11.77,92.63c-1.62,0-2.93-1.31-2.93-2.93s1.31-2.93,2.93-2.93,2.93,1.31,2.93,2.93-1.31,2.93-2.93,2.93Z"/>
  <path class="cls-1" d="M88.24,83.82c-3.25,0-5.88,2.63-5.88,5.88s2.63,5.88,5.88,5.88,5.88-2.63,5.88-5.88-2.63-5.88-5.88-5.88ZM88.25,92.63c-1.62,0-2.93-1.31-2.93-2.93s1.31-2.93,2.93-2.93,2.93,1.31,2.93,2.93-1.31,2.93-2.93,2.93Z"/>
  <rect class="cls-1" x="82.37" y="51.45" width="2.93" height="3.04"/>
  <rect class="cls-1" x="88.24" y="51.45" width="2.94" height="3.04"/>
  <rect class="cls-1" x="47.05" y="83.81" width="2.96" height="2.94"/>
  <rect class="cls-1" x="47.05" y="89.69" width="2.96" height="2.94"/>
  <rect class="cls-1" x="50.01" y="10.28" width="2.95" height="2.95"/>
  <rect class="cls-1" x="50.01" y="16.16" width="2.95" height="2.95"/>
  <rect class="cls-1" x="8.84" y="48.5" width="2.94" height="2.96"/>
  <rect class="cls-1" x="14.72" y="48.5" width="2.93" height="2.96"/>
  <rect class="cls-1" x="20.6" y="10.28" width="2.93" height="2.95"/>
  <rect class="cls-1" x="32.36" y="10.28" width="2.93" height="2.95"/>
  <rect class="cls-1" x="38.25" y="10.28" width="2.93" height="2.95"/>
  <rect class="cls-1" x="44.12" y="10.28" width="2.94" height="2.95"/>
  <rect class="cls-1" x="8.84" y="66.16" width="2.94" height="2.95"/>
  <rect class="cls-1" x="88.24" y="45.57" width="2.94" height="2.94"/>
  <rect class="cls-1" x="8.84" y="72.04" width="2.94" height="2.95" transform="translate(-.19 .03)"/>
  <rect class="cls-1" x="88.24" y="39.69" width="2.94" height="2.94"/>
  <rect class="cls-1" x="8.84" y="77.93" width="2.94" height="2.95" transform="translate(-.09 .01)"/>
  <rect class="cls-1" x="88.24" y="33.81" width="2.94" height="2.95"/>
  <rect class="cls-1" x="8.84" y="54.4" width="2.94" height="2.95"/>
  <rect class="cls-1" x="88.24" y="27.92" width="2.94" height="2.95"/>
  <rect class="cls-1" x="88.24" y="22.04" width="2.94" height="2.95"/>
  <rect class="cls-1" x="26.48" y="10.28" width="2.94" height="2.95"/>
  <rect class="cls-1" x="8.84" y="60.28" width="2.94" height="2.95"/>
  <rect class="cls-1" x="52.96" y="89.69" width="2.94" height="2.94"/>
  <rect class="cls-1" x="58.84" y="89.69" width="2.93" height="2.94"/>
  <rect class="cls-1" x="64.72" y="89.69" width="2.93" height="2.94"/>
  <rect class="cls-1" x="70.6" y="89.69" width="2.94" height="2.94"/>
  <rect class="cls-1" x="76.48" y="89.69" width="2.93" height="2.94"/>
  <path class="cls-1" d="M50.01,33.82c-9.74,0-17.64,7.9-17.64,17.64s7.9,17.64,17.64,17.64,17.64-7.9,17.64-17.64-7.9-17.64-17.64-17.64ZM50.01,66.16c-8.12,0-14.7-6.58-14.7-14.7s6.58-14.7,14.7-14.7,14.7,6.58,14.7,14.7-6.58,14.7-14.7,14.7Z"/>
  <path class="cls-1" d="M44.67,41.41c-.26.04-.44.75-.54,1.08v17.61c.07.52.4,1.32.75,1.51s1.28.08,1.66-.15l14.53-8.74c.93-.56.82-1.9.1-2.44l-15.07-9.05-1.44.19ZM47.08,45.28l10.39,6.18-10.39,6.2v-12.38Z"/>
 </g>
</g>
</svg>
