<?xml version="1.0" encoding="UTF-8"?>
<svg id="Capa_1" data-name="Capa 1" xmlns="http://www.w3.org/2000/svg" viewBox="0 0 100 100" preserveAspectRatio="xMidYMid meet">
  <defs>
    <style>
      .cls-1 {
        fill: none;
      }

      .cls-2 {
        fill: #feb46b;
      }
    </style>
  </defs>
<g transform="translate(50 50) scale(0.6) translate(-50 -50)">
    <g transform="translate(10 10) scale(0.80)">
  <rect class="cls-1" x="43.05" y="58.03" width="2.74" height="8.24"/>
  <path class="cls-1" d="M34.83,49.95c.07,2.9,2.45,5.37,5.48,5.3l-.05-10.88c-3.43,0-5.5,2.69-5.43,5.58Z"/>
  <rect class="cls-1" x="59.54" y="38.8" width="2.75" height="22"/>
  <path class="cls-1" d="M49.14,30.33c.68.5,1.54.14,1.89-.33.29-.4.53-1.74.09-1.97-.83-.43-1.68-.2-2.48-.14-.23.76-.18,1.94.5,2.44Z"/>
  <path class="cls-1" d="M65.01,47.53l.12,4.57c2.03-.22,2.79-1.39,2.58-2.76-.17-1.09-1.37-1.85-2.7-1.82Z"/>
  <path class="cls-1" d="M23.27,28.24l-6.05-3.33-.26,7.58c-.01.34.15.55.25.65s.58.24.8.1l5.52-3.39c.63-.39.13-1.39-.27-1.61Z"/>
  <path class="cls-1" d="M29.31,29.19c0-5.31-4.3-9.61-9.61-9.61s-9.61,4.3-9.61,9.61,4.3,9.61,9.61,9.61,9.61-4.3,9.61-9.61ZM16.06,35.63c-.88-.52-1.8-1.52-1.81-2.8l-.05-6.68c0-1.32.49-2.38,1.33-3.04.85-.66,2.36-1.14,3.42-.51l6.06,3.55c1.12.65,1.57,2.01,1.54,3.12-.03,1.26-.69,2.51-1.99,3.27l-5.34,3.16c-1.03.61-2.21.49-3.17-.08Z"/>
  <path class="cls-1" d="M52.01,44.28l-8.97.07.06,10.94h8.1c2.06-.01,3.73.45,5.57,1.33v-13.64c-1.62.82-3.06,1.28-4.75,1.29ZM48.55,51.17h-2.77v-2.71h2.77v2.71ZM54.04,51.17h-2.74v-2.76h2.74v2.76Z"/>
  <path class="cls-1" d="M48.36,25.41c.36-1.23.21-2.28.13-3.37-2-.82-2.94-2.78-2.63-4.55.37-2.11,2.17-3.35,4.02-3.38,2.08-.04,3.72,1.45,4.07,3.31.36,1.92-.58,3.78-2.59,4.58-.13,1.27-.28,2.32.23,3.36l3.49-4.13c1.68-1.99,2.23-4.58,1.01-6.9-1.14-2.18-3.47-3.05-6.1-3.07-2.7-.02-5.13.81-6.31,3.15-1.12,2.23-.71,4.77.99,6.74l3.68,4.27Z"/>
  <circle class="cls-1" cx="49.92" cy="18.2" r="1.38"/>
  <path class="cls-1" d="M23.49,56.64h-7.61c-.37,1.91-.44,3.7.06,5.51l7.59-.02c.36-1.92.4-3.64-.04-5.49Z"/>
  <path class="cls-1" d="M19.68,50.37c-1.14,1.07-1.95,2.09-2.71,3.47h5.43c-.72-1.41-1.52-2.45-2.72-3.47Z"/>
  <circle class="cls-1" cx="84.26" cy="42.92" r="4.11"/>
  <path class="cls-1" d="M84.51,49.81c-2.19-.12-4.6,1.2-4.91,3.54l-.62,4.76,10.54-.09-.45-3.92c-.29-2.44-2.27-4.16-4.57-4.29Z"/>
  <rect class="cls-1" x="87.01" y="11.33" width="2.73" height="16.51"/>
  <rect class="cls-1" x="77.39" y="16.82" width="2.74" height="11.02"/>
  <path class="cls-1" d="M29.33,77.25v8.25s7.94.03,7.94.03c.64,1.93.59,3.81,1.72,5.68l1.71-5.73,7.86.03v-8.25s-19.23,0-19.23,0ZM34.81,82.8h-2.75v-2.79h2.75v2.79ZM40.31,82.8h-2.75s.01-2.8.01-2.8h2.75s-.01,2.8-.01,2.8ZM45.79,82.8h-2.75v-2.79h2.75v2.79Z"/>
  <rect class="cls-1" x="67.77" y="22.3" width="2.76" height="5.53"/>
  <path class="cls-1" d="M75.06,80.1c-2.63-.16-4.54-1.72-4.53-4.29l.02-4.01h2.7s0-2.64,0-2.64c-4.81.66-8.22,4.76-8.23,9.49,0,4.71,3.46,8.72,8.23,9.52l-.02-2.93c-2.09-.84-3.08-2.89-2.63-5.16l2.72.09c-.17.93-.03,1.9.51,2.34.39.32,1.59.57,2.02.12.51-.53.21-2.47-.79-2.53Z"/>
  <path class="cls-1" d="M76.05,69.13l.03,2.93c2.13.83,3.04,2.88,2.6,5.08-1,.18-1.96.29-2.77-.17.26-.93.06-1.81-.38-2.16-.34-.27-1.3-.56-1.96-.22-.69.36-.4,2.56.85,2.63,2.42.13,4.31,1.59,4.32,3.91v4.34s-2.71.02-2.71.02v2.66c4.81-.77,8.21-4.89,8.22-9.51.02-4.75-3.39-8.71-8.2-9.52Z"/>
  <path class="cls-1" d="M66.42,69.4c3.71-3.27,8.86-4.07,13.62-1.91,1.26-2.24,2.08-4.3,2.8-6.69h-6.96s.86-7.28.86-7.28c.27-2.25,1.61-3.9,3.26-5.22-2.15-1.85-2.88-4.04-2.53-6.49.28-1.95,1.57-3.81,3.61-4.98-1.09-2.3-2.24-4.36-3.76-6.26h-9.67c-1.48-.01-2.63-1.27-2.63-2.72l.02-5.67.4-1.65c-1.98-.86-3.68-1.65-5.95-2.26-.39,1.87-1.16,3.31-2.31,4.75l-2.95,3.71c-.4.51-.22,1.46-.2,2.09.1,2.57-1.77,4.53-4.19,4.5-2.15-.03-4.02-1.76-4.08-4.2-.02-.61.29-1.7-.12-2.24l-3.51-4.52c-.97-1.25-1.51-2.58-1.78-4.16-3.58,1.06-6.71,2.58-9.98,4.72,2.46,4.43,2.21,9.62-.76,13.63-2.84,3.83-7.62,5.78-12.56,4.75-.62,2.21-1.13,4.07-1.2,6.37,7.11-2.15,14,1.83,15.79,8.63,1.76,6.69-2.33,13.59-9.35,15.21,1.33,1.83,2.69,3.31,4.38,4.9.55-1.26,1.43-1.89,2.67-1.89h19.33c1.44.01,2.58,1.26,2.59,2.65l.04,8.33c4.14-.29,8-.97,11.71-2.65-1.74-4.92-.33-10.15,3.4-13.44ZM64.92,61.4c-.12,2.63-5.54,2.67-7.12,1.57-.88-.61-.72-1.69-1.22-2.79-.69-1.52-3.28-2.04-4.81-2.06l-3.19-.03-.06,8.31c-.01,2.14-1.94,2.75-3.87,2.76-1.74,0-4.2-.22-4.24-2.38l-.13-8.68c-4.58-.18-8.12-3.75-8.22-8.14-.1-4.42,3.31-8.36,7.92-8.39l11.74-.07c1.56,0,4.15-.59,4.83-2.09.57-1.25.33-2.97,2.24-3.22,1.23-.16,2.83-.19,4.19,0,1.27.16,2.02,1.4,2.04,2.6l.08,5.94c3.04.1,5.38,2.13,5.42,4.94.04,2.8-2.16,5.05-5.31,5.15l-.29,6.56Z"/>
  <rect class="cls-2" x="32.06" y="80.01" width="2.75" height="2.79"/>
  <rect class="cls-2" x="37.54" y="80.03" width="2.79" height="2.75" transform="translate(-42.62 120.02) rotate(-89.77)"/>
  <rect class="cls-2" x="43.05" y="80.01" width="2.75" height="2.79"/>
  <path class="cls-2" d="M70.53,49.69c-.04-2.81-2.38-4.84-5.42-4.94l-.08-5.94c-.02-1.2-.77-2.43-2.04-2.6-1.36-.18-2.95-.15-4.19,0-1.9.25-1.66,1.97-2.24,3.22-.69,1.5-3.27,2.08-4.83,2.09l-11.74.07c-4.62.03-8.02,3.97-7.92,8.39.1,4.39,3.64,7.96,8.22,8.14l.13,8.68c.03,2.16,2.49,2.38,4.24,2.38,1.93,0,3.85-.62,3.87-2.76l.06-8.31,3.19.03c1.53.01,4.12.54,4.81,2.06.5,1.09.34,2.17,1.22,2.79,1.58,1.1,7,1.06,7.12-1.57l.29-6.56c3.16-.1,5.35-2.35,5.31-5.15ZM34.83,49.95c-.07-2.89,2.01-5.58,5.43-5.58l.05,10.88c-3.03.06-5.41-2.41-5.48-5.3ZM45.79,66.27h-2.74v-8.24h2.74v8.24ZM51.2,55.28h-8.1s-.06-10.93-.06-10.93l8.97-.07c1.69-.01,3.13-.48,4.75-1.29v13.64c-1.84-.88-3.5-1.35-5.56-1.34ZM62.28,60.81h-2.75v-22h2.75v22ZM65.13,52.11l-.12-4.57c1.33-.03,2.54.73,2.7,1.82.21,1.37-.55,2.53-2.58,2.76Z"/>
  <rect class="cls-2" x="45.79" y="48.46" width="2.77" height="2.71"/>
  <rect class="cls-2" x="51.29" y="48.41" width="2.74" height="2.76"/>
  <path class="cls-2" d="M82.39,68.96c1.56-2.75,2.55-5.28,3.31-8.15h6.97s-.83-6.86-.83-6.86c-.29-2.37-1.48-4.27-3.34-5.65,2.53-2.16,3.26-5.26,2.05-8.11-1.08-2.53-3.68-4.31-6.84-4.1-.79-2.13-1.73-3.51-2.86-5.47l8.86-.05c1.55,0,2.79-1.25,2.79-2.83V11.23c-.01-1.27-.98-2.57-2.22-2.58l-3.56-.03c-1.31,0-2.45,1.14-2.45,2.52l-.03,16.61c-.38.1-.76.14-1.37,0v-10.93c0-1.28-.9-2.66-2.21-2.65l-3.99.03c-1.22,0-2.04,1.39-2.04,2.59v10.97c-.46.1-.82.12-1.37,0l-.02-5.91c-.38-1.82-2.06-2.58-3.88-2.27-3.15-1.89-6.34-3.35-9.97-4.22-1.07-4.6-4.87-6.87-9.39-6.9-4.52-.03-8.51,2.18-9.53,6.88-4.29,1.01-8.07,2.91-11.76,5.37-5.55-5.75-14.6-4.96-19.07,1.26-4.48,6.22-2.27,15.01,4.8,18.41-.9,2.98-1.35,5.7-1.55,8.69-4.59,3.11-6.64,8.58-5.02,13.94,1.46,4.86,5.94,8.45,11.31,8.81,2.1,3.21,4.52,5.76,7.37,8.13l.03,5.57c0,1.34,1.02,2.68,2.41,2.69l6.03.04,1.03,3.54c.39,1.34,1.83,2.1,3.08,1.99,1.18-.11,2.41-.81,2.73-2.09l.88-3.45h6.94c5.09.02,9.89-.9,14.61-2.87,4.37,6.56,13.22,7.6,18.83,2.24,5.48-5.24,5.1-13.78-.73-18.64ZM87.01,11.33h2.73v16.51h-2.73V11.33ZM89.07,54.1l.45,3.92-10.54.09.62-4.76c.3-2.34,2.72-3.67,4.91-3.54,2.3.13,4.28,1.85,4.57,4.29ZM84.26,38.81c2.27,0,4.11,1.84,4.11,4.11s-1.84,4.11-4.11,4.11-4.11-1.84-4.11-4.11,1.84-4.11,4.11-4.11ZM77.39,16.82h2.74v11.02h-2.74v-11.02ZM67.77,22.3h2.76v5.53h-2.76v-5.53ZM43.7,14.4c1.18-2.34,3.61-3.17,6.31-3.15,2.63.02,4.95.9,6.1,3.07,1.22,2.32.67,4.91-1.01,6.9l-3.49,4.13c-.51-1.03-.36-2.09-.23-3.36,2.01-.8,2.95-2.66,2.59-4.58-.35-1.86-1.99-3.35-4.07-3.31-1.85.04-3.65,1.27-4.02,3.38-.31,1.77.63,3.73,2.63,4.55.09,1.1.23,2.14-.13,3.37l-3.68-4.27c-1.69-1.97-2.11-4.51-.99-6.74ZM51.12,28.03c.44.23.2,1.58-.09,1.97-.35.47-1.2.83-1.89.33-.68-.5-.73-1.68-.5-2.44.79-.06,1.65-.29,2.48.14ZM48.55,18.2c0-.76.62-1.38,1.38-1.38s1.38.62,1.38,1.38-.62,1.38-1.38,1.38-1.38-.62-1.38-1.38ZM10.1,29.19c0-5.31,4.3-9.61,9.61-9.61s9.61,4.3,9.61,9.61-4.3,9.61-9.61,9.61-9.61-4.3-9.61-9.61ZM15.19,51.02c-.19,1.1-.73,1.67-1.18,2.69-.7.27-1.29.32-2.05.02.92-1.07,1.66-2.05,3.24-2.72ZM10.54,62.15c-.6-1.71-.61-3.64-.04-5.47h2.58c-.29,1.92-.34,3.34,0,5.4l-2.54.08ZM11.93,65.02c.39-.23,1.3-.3,1.85-.05.72.85,1.08,1.86,1.65,2.91-1.53-.58-2.49-1.53-3.5-2.86ZM15.89,56.64h7.61c.43,1.85.4,3.57.04,5.49l-7.59.02c-.5-1.81-.43-3.6-.06-5.51ZM16.97,53.84c.76-1.38,1.57-2.4,2.71-3.47,1.2,1.02,2,2.07,2.72,3.46h-5.43ZM19.7,68.39c-1.17-1.13-2.08-2.04-2.72-3.55l5.39.09c-.54,1.38-1.51,2.37-2.67,3.47ZM40.7,85.47l-1.71,5.73c-1.13-1.87-1.08-3.75-1.72-5.68l-7.95-.03v-8.25s19.24,0,19.24,0v8.25s-7.86-.03-7.86-.03ZM63.02,82.84c-3.71,1.68-7.57,2.36-11.71,2.65l-.04-8.33c0-1.39-1.15-2.63-2.59-2.63h-19.33c-1.24-.01-2.11.62-2.67,1.88-1.69-1.6-3.05-3.08-4.38-4.9,7.03-1.63,11.12-8.52,9.35-15.21-1.79-6.8-8.68-10.78-15.79-8.63.07-2.3.58-4.16,1.2-6.37,4.95,1.03,9.73-.92,12.56-4.75,2.97-4.01,3.22-9.2.76-13.63,3.27-2.14,6.4-3.65,9.98-4.72.27,1.58.81,2.91,1.78,4.16l3.51,4.52c.42.54.11,1.63.12,2.24.06,2.44,1.94,4.18,4.08,4.2,2.42.03,4.29-1.93,4.19-4.5-.03-.64-.21-1.59.2-2.09l2.95-3.71c1.14-1.44,1.91-2.88,2.31-4.75,2.27.61,3.97,1.4,5.95,2.26l-.4,1.65-.02,5.67c0,1.46,1.15,2.71,2.63,2.71h9.67c1.52,1.92,2.67,3.97,3.76,6.27-2.04,1.17-3.33,3.04-3.61,4.98-.35,2.45.37,4.65,2.53,6.49-1.65,1.32-3,2.97-3.26,5.22l-.86,7.27h6.96c-.73,2.39-1.55,4.46-2.8,6.69-4.76-2.15-9.91-1.36-13.62,1.91-3.73,3.29-5.14,8.52-3.4,13.44ZM26.31,56.67l2.62-.02c.49,1.72.51,3.37.07,5.41-.94.2-1.71.14-2.68.07.3-1.82.36-3.42,0-5.45ZM25.53,53.69c-.62-.82-.95-1.62-1.52-2.67,1.49.38,2.37,1.36,3.39,2.65-.52.43-1.6.38-1.87.02ZM25.5,65.01c.3-.18,1.07-.27,1.91.03-.78,1.19-1.89,2.24-3.41,2.88.48-1.17.98-2.01,1.5-2.91ZM73.83,82.5c-.54-.44-.68-1.41-.51-2.34l-2.72-.09c-.45,2.27.54,4.32,2.63,5.16l.02,2.93c-4.77-.8-8.24-4.82-8.23-9.52,0-4.73,3.42-8.83,8.23-9.49v2.63s-2.7,0-2.7,0l-.02,4.01c-.01,2.57,1.9,4.13,4.53,4.29.99.06,1.29,1.99.79,2.53-.43.45-1.63.19-2.02-.12ZM76.03,88.16v-2.66s2.72-.02,2.72-.02v-4.34c-.02-2.32-1.91-3.79-4.33-3.91-1.26-.07-1.54-2.27-.85-2.63.66-.35,1.62-.05,1.96.22.44.35.65,1.23.38,2.16.81.47,1.78.35,2.77.17.44-2.2-.48-4.25-2.6-5.08l-.03-2.93c4.81.8,8.22,4.77,8.2,9.52-.02,4.62-3.41,8.73-8.22,9.51Z"/>
  <path class="cls-2" d="M26.56,29.28c.03-1.12-.43-2.47-1.54-3.12l-6.06-3.55c-1.06-.62-2.57-.15-3.42.51-.85.65-1.34,1.72-1.33,3.04l.05,6.68c0,1.29.93,2.28,1.81,2.8.95.57,2.14.69,3.17.08l5.34-3.16c1.3-.77,1.96-2.02,1.99-3.27ZM23.54,29.85l-5.52,3.39c-.22.14-.69,0-.8-.1s-.26-.31-.25-.65l.26-7.58,6.05,3.33c.4.22.9,1.22.27,1.61Z"/>
  </g>
</g>
</svg>
