<?xml version="1.0" encoding="UTF-8"?>
<svg id="Capa_1" data-name="Capa 1" xmlns="http://www.w3.org/2000/svg" viewBox="0 0 100 100" preserveAspectRatio="xMidYMid meet">
  <defs>
    <style>
      .cls-1 {
        fill: #feb46b;
      }
    </style>
  </defs>
<g transform="translate(50 50) scale(0.82) translate(-50 -50)">
    <g transform="translate(10 10) scale(0.50)">
  <path class="cls-1" d="M60.14,60.39c-.33.16-.64.24-1.14.24l-15.27.03c-.93,0-1.43,1.06-1.32,1.76.14.82.79,1.27,1.67,1.28l3.51.04c2.29.2,3.94,2.22,3.93,4.5l.02,7.64h6.96c1.09-2.54,2.54-4.62,4.3-6.64l6.12-6.23c1.67-1.71,2.85-3.58,3.96-5.52.26-.45.63-.72.79-1.4.31-1.36.79-2.68.89-4.12l.21-3.07c.32.08.55.23.88.16,0-.24.14-.46.28-.49.39-.09.61,1.16.93.75.41-.52.39-1.24.4-1.8.19.22.16.66.14.91-.08.71,1.2.06,2.28.43.18.06.53.4.7.08-.11-.16-.22-.37-.19-.49.1-.02.23.03.23.18l.04,3.15c.02,1.13,1.16,2.59,2.75,2.74.9.09,1.73-.35,2.36-.98l2.09-2.11,6.51,6.46-2.09,2.17c-.81.85-1.07,1.93-.7,3.17.24.82,1.14,1.88,2.25,1.91l3.55.09-.02,9.15c-1.34.02-2.68-.17-3.9.1-1.43.32-2.04,1.56-2.01,2.85.02.74.07,1.26.59,1.82l2.35,2.5-3.89,3.96c-.78.8-1.67,1.41-2.27,2.38-.12.2-.51.05-.63-.07l-1.17-1.16c-.82-.82-1.68-1.69-2.89-1.65-1.53.06-2.8,1.12-2.84,2.65l-.08,3.3h-9.13s-.04-2.75-.04-2.75c-.02-1.83-1.42-3.45-3.25-3.26-.72.07-1.33.44-1.8.9l-2.22,2.15c-.6-.62-1.09-1.08-1.76-1.52-.09,2.18-1.46,3.8-3.48,4.45l-.51,1.18c-1.37,3.15-5.37,5.35-9.06,4.98-2.12-.21-3.97-1-5.59-2.48-.55-.51-1.17-1.12-1.53-1.81l-.97-1.85c-.93-.44-1.82-1-2.47-1.88-1.23-1.67-1.12-4.08.29-5.68-.96-1.03-1.15-2.23-1.15-3.83l-5.25,5.25-4.58,4.55-7.81,2.97-12.16,4.65c-1.63.63-3.57-.27-4.64-1.94-.72-1.12-.73-2.31-.28-3.57l.5-1.38,5.22-13.62,1.9-4.76,13.07-13.02.17-.17.14-.15c.16.02.23-.18.02-.2v-.11s-.03-.14-.03-.14c-.02-.11-.06-.22-.12-.32l-.02-.13.05-.31c.08-.5-.3-.77-.36-1.2l-.21-1.47c.34.03.57.15.74.15.13,0,.32-.74,1.79-.42-.08.55.07.92.28,1.41.24.57.28,1.39.9,1.66,1.04,2.09,2.36,3.99,4.07,5.74l6.26,6.4c1.73,1.92,3.08,3.94,4.02,6.34l6.91-.03.04-7.62c-.07-1.01-.79-1.54-1.76-1.56l-3.66-.07c-2.33-.45-3.81-2.48-3.66-4.75.14-2.09,1.77-4.22,4.06-4.23l15.72-.09c.93,0,1.49-.78,1.46-1.6-.03-.64-.64-1.43-1.45-1.43h-10.6c-1.94.02-3.64,0-4.98-1.51-.96-1.08-1.17-2.33-1.18-3.8l-.03-3.71h-16.26c-.03-.09,0-.31.18-.31h15.13c.48,0,.92.02,1.26.28.02,1.69-.13,3.31.22,4.93.31.36,1.27.24,1.64-.23l.53,1.62c.08.24.71-.11.67-.39.32-.02.46.21.68.26l13.3.11c1.75.01,2.91,1.4,3.47,2.89.4,1.07.27,2.39-.21,3.37-.62,1.27-1.68,1.82-2.8,2.35ZM64.08,83.67c1.92-1.83,4.55-2.22,6.89-1.12,1.98.93,3.35,3.04,3.45,5.46h2.97c-.02-2.5,1.51-4.63,3.59-5.54,2.32-1.01,4.88-.52,6.7,1.21l2.11-2.11c-1.78-1.85-2.23-4.41-1.18-6.79.91-2.06,3.07-3.5,5.51-3.51l-.06-3.01c-2.47.02-4.6-1.52-5.5-3.59-1.01-2.33-.45-4.91,1.23-6.74l-2.06-2.1c-1.81,1.71-4.13,2.22-6.53,1.34-1.88-.7-3.33-2.44-3.87-4.78-.35,2.34-.84,4.52-1.84,6.71,5.37-.18,9.9,3.6,10.84,8.68.82,4.42-1.06,8.67-4.84,11.05-4.39,2.76-10.02,1.92-13.57-1.91-1.47-1.58-2.27-3.52-2.69-5.72-1.73,1.87-3.19,4.05-4.01,6.3.62,1.2,1.33,2.65.77,4.17l2.08,2ZM19.63,78.21l11.1-11.13-2.77-2.86-2.28-3.01-3.08,3.08-8.53,8.47,5.56,5.45ZM68.57,67.8c-.94,3.31.51,6.61,3.19,8.36,2.81,1.83,6.4,1.57,8.94-.54,2.48-2.05,3.42-5.46,2.24-8.59-.86-2.28-2.75-3.97-5.08-4.65-1.59-.38-3.13-.36-4.58.3l-3.33,3.65-1.38,1.46ZM27.39,85.72l10.38-10.42c-1.28-2.25-2.93-4.17-4.89-6.02l-11.08,11.07c.23.58.79.87,1.22,1.32l3.08,3.13c.37.38.61.92,1.29.93ZM14.39,91.34l10.01-3.89-11.88-11.88-3.82,10.11,5.7,5.66ZM57.67,81.97c.89,0,1.42-.81,1.47-1.47.04-.54-.47-1.56-1.24-1.56l-15.26-.05c-.99,0-1.68.52-1.75,1.5-.05.71.52,1.6,1.45,1.6h15.33ZM57.83,88c.89,0,1.33-1.05,1.28-1.58-.06-.77-.65-1.41-1.49-1.42l-8.69-.04-6.8.07c-.73,0-1.3.86-1.25,1.51.04.6.48,1.48,1.3,1.48l15.64-.02ZM7.53,93.96l3.7-1.45-3.71-3.72-1.68,4.38c.27.81.91,1.1,1.68.79ZM55.21,91.08l-10.5-.02c1.11,1.98,3.15,3.03,5.27,3.03s4.25-.99,5.23-3.02Z"/>
  <path class="cls-1" d="M77.27,47.51c-.01.57,0,1.28-.4,1.8-.31.4-.53-.85-.93-.75-.14.03-.27.25-.28.49-.34.07-.56-.09-.88-.16l-.21,3.07c-.1,1.45-.58,2.77-.89,4.12-.15.68-.53.95-.79,1.4,1.08-2.69,1.58-5.44,1.44-8.42-.55-11.85-9.57-21.73-21.36-23.22-.3.06-.04.65-.04.85l.02,3.42c4.31.15,7.58,3.33,7.69,7.49s-3.04,7.6-7.28,7.79l-7.96.07v4.08c-.02,1.03.62,1.98,1.73,1.98l12.79.02c2.01.43,3.5,1.98,3.71,4.01.31,2.36-1.28,4.47-3.51,4.84,1.12-.53,2.18-1.08,2.8-2.35.48-.98.62-2.3.21-3.37-.56-1.49-1.72-2.88-3.47-2.89l-13.3-.11c-.22-.06-.36-.29-.68-.26.04.28-.59.64-.67.39l-.53-1.62c-.37.47-1.33.59-1.64.23-.35-1.61-.2-3.23-.22-4.93-.33-.26-.78-.28-1.26-.28h-15.13c-.18,0-.22.23-.18.3.01.03,0,.08-.01.11-.05.06-.1.15-.1.23l-.21,2.16c-.32,3.27.15,6.43,1.37,9.41-.63-.27-.67-1.08-.9-1.66-.2-.49-.36-.85-.28-1.41-1.47-.32-1.66.42-1.79.42-.17,0-.41-.12-.74-.15l.21,1.47c.06.43.43.7.36,1.2-.1,0-.23-.05-.29-.21-1.31-3.84-1.29-7.5-.85-11.63l-11.55-.04c-.98,0-1.92-.33-2.78-.68-4.75-1.96-6.93-7.19-5-11.96,1.01-2.51,3.08-4.34,5.72-5.28-.64-4.33-.26-8.13,2.15-11.83,1.44-2.19,3.23-3.76,5.49-5.04,6.1-3.44,13.55-2.06,18.31,2.94.53.56.98,1.03,1.42,1.7l.84,1.29c.3.47,1.03,0,1.4-.01l3.94-.07,2.46.63c2.63,1.14,4.76,2.94,6.16,5.53,2.45.1,4.82.47,7.17,1.28l1.27-1.1c.88-1.07,1.84-1.9,2.84-2.9l14.61-14.65c4.49-3.1,9.86-3.47,14.4-.56,2.29,1.47,3.91,3.72,4.92,6.35.72,1.88.76,4.19.46,6.2-.38,2.54-1.62,4.69-3.4,6.48l-17.36,17.37c-.23.23-.14.67-.09.93.62,1.83.91,3.62,1.07,5.47ZM89.55,23.41c1.41-1.18,2.45-2.31,3.36-3.7,2.22-3.81,1.36-8.62-1.93-11.57s-8.45-3.09-11.98-.14l-1.89,1.81c-.22.21-.34.41-.33.68,0,.25.16.32.37.53l12.4,12.39ZM49.66,30.96c.67-2.74.1-5.47-1.48-7.67-2.95-4.1-8.56-5.03-12.64-2.02-1.99,1.47-3.36,3.64-3.63,6.08,2.67.85,4.4,3.16,4.31,5.87l-3.03-.02c-.08-1.76-1.42-3.05-3.01-3.02s-2.93,1.32-2.94,3.04h-3.09c-.02-2.84,1.89-5.18,4.63-5.91.41-3.82,2.55-7,5.83-9.13-1.33-2.4-3.38-4.29-5.97-5.37-4.34-1.82-9.19-.85-12.64,2.24-3.35,3-4.76,7.67-3.59,12.04,4.95.38,8.67,4.36,8.68,9.2-1.09.06-2.08.07-3.11-.1-.09-3.12-2.4-5.71-5.47-6-2.11-.2-4.03.68-5.29,2.32-1.42,1.84-1.76,4.35-.71,6.46.96,1.91,2.93,3.31,5.23,3.31l41.73-.03c2.72,0,4.48-2.88,4.02-5.34s-3.21-4.29-5.69-3.5c-1.94.62-3.23,2.28-3.21,4.28l-3.13.03c-.11-2.81,1.52-5.42,4.2-6.78ZM74.35,12.51l-2.48,2.48,13.12,13.13,2.48-2.48-13.12-13.13ZM68.72,29.14l6.52-6.57-2.48-2.41-2.97-3.02-4.26,4.12c-.64.62-1.23,1.2-1.84,1.85l-2.01,2.16c2.39,1.02,4.39,2.41,6.23,4.07.13.12.33.2.45.18.1-.01.2-.22.36-.39ZM82.75,30.19l-3.2-3.2c-.66-.8-1.34-1.57-2.29-2.11l-6.85,6.87c1.77,2,3.13,4.09,4.31,6.46l1.77-1.67,6.25-6.35Z"/>
  <path class="cls-1" d="M80.2,48.45c-.04.12.08.34.19.49-.16.31-.52-.02-.7-.08-1.08-.37-2.36.27-2.28-.43l2.79.02Z"/>
  <path class="cls-1" d="M24.08,58.49l.02-.2c.21.02.14.22-.02.2Z"/>
  <path class="cls-1" d="M24.09,58.18c-.12.06-.23-.1-.03-.14l.03.14Z"/>
  <path class="cls-1" d="M23.94,57.72c-.1,0-.13-.11-.02-.13l.02.13Z"/>
  <path class="cls-1" d="M23.77,58.81l.17-.17-.17.17Z"/>
  <path class="cls-1" d="M25.96,45.84c0-.08.06-.16.1-.23-.02.08-.05.16-.1.23Z"/>
  <path class="cls-1" d="M80.42,69.75c0,2.52-2.04,4.57-4.57,4.57s-4.57-2.04-4.57-4.57,2.04-4.57,4.57-4.57,4.57,2.04,4.57,4.57ZM77.37,69.75c0-.83-.68-1.51-1.51-1.51s-1.51.68-1.51,1.51.68,1.51,1.51,1.51,1.51-.68,1.51-1.51Z"/>
</g>
</g>
</svg>
